<?xml version="1.0" encoding="UTF-8"?>
<svg width="319px" height="50px" viewBox="0 0 217 34" version="1.1" xmlns="http://www.w3.org/2000/svg" xmlns:xlink="http://www.w3.org/1999/xlink">
    <title>BBBaby Logo_Same</title>
    <g id="Page-1" stroke="none" stroke-width="1" fill="none" fill-rule="evenodd">
        <g id="BBBaby-Logo_Same" fill="#00A298" fill-rule="nonzero">
            <g id="Group" transform="translate(108.500000, 16.612000) scale(-1, 1) rotate(-180.000000) translate(-108.500000, -16.612000) translate(0.000000, 0.112000)">
                <path d="M3.38559,25.5164 C3.38559,27.29987 3.31448,28.04789 2.74326,28.04789 C2.38667,28.04789 2.03125,27.79855 1.56767,27.79855 C0.39247,27.79855 -0.00013,28.75977 -0.00013,29.82876 C-0.00013,31.21859 0.60684,32.32463 2.10236,32.32463 C3.029,32.32463 3.99126,31.96765 4.95378,31.96765 C6.0242,31.96765 7.05614,32.32463 8.09055,32.32463 C8.94673,32.32463 9.2651,31.7889 9.2651,30.39959 L9.2651,24.2697 L9.33764,24.2697 C10.44212,25.83737 12.1875,26.65754 14.25528,26.65754 C19.38729,26.65754 21.20469,21.4539 21.20469,17.10709 C21.20469,12.22494 18.92358,7.0564 13.36465,7.0564 C11.01191,7.0564 8.87406,7.91102 7.6258,10.33578 L7.55469,10.26311 L7.66285,9.37352 C7.66285,8.23342 6.70059,7.69769 5.66618,7.69769 C3.77663,7.69769 3.38559,8.58884 3.38559,10.30029 L3.38559,25.51679 L3.38559,25.5164 Z M15.32479,16.7856 C15.32479,17.9972 15.21663,19.31657 14.61135,20.34942 C14.1492,21.13449 13.36465,21.84702 12.43736,21.84702 C11.08458,21.84702 9.2651,20.52817 9.2651,16.71397 C9.2651,13.29289 10.61996,11.86692 12.40239,11.86692 C14.11228,11.86692 15.32492,13.40053 15.32492,16.7856" id="Shape"></path>
                <path d="M28.4024,15.6455 C28.4024,14.89696 28.4024,13.64974 28.83049,12.9363 C29.25702,12.26095 30.04157,11.83286 30.82456,11.83286 C31.85806,11.83286 32.82032,12.36755 33.39154,13.25766 C34.1406,14.39776 34.21015,15.61053 34.21015,16.92938 L34.21015,19.38768 C34.21015,21.31272 34.06858,21.88199 33.56938,21.88199 C33.39154,21.88199 33.21279,21.81179 33.03456,21.77539 C32.82032,21.70376 32.64261,21.63421 32.39379,21.63421 C31.2182,21.63421 30.82456,22.59556 30.82456,23.66442 C30.82456,25.01928 31.4314,26.12376 32.99803,26.12376 C34.17518,26.12376 34.95921,25.76782 36.13532,25.76782 C37.09706,25.76782 37.77501,26.12376 38.66525,26.12376 C39.59202,26.12376 39.80626,25.73116 39.80626,24.94765 L39.80626,14.25515 C39.80626,12.11782 40.05508,11.76084 40.44768,11.76084 C40.80466,11.76084 41.15956,12.01109 41.62483,12.01109 C42.79886,12.01109 43.19237,11.04987 43.19237,9.97828 C43.19237,8.62498 42.58553,7.51946 41.08858,7.51946 C40.19782,7.51946 39.37713,7.87748 38.55865,7.87748 C37.77501,7.87748 36.99046,7.51946 36.31407,7.51946 C35.42188,7.51946 35.03084,8.12734 35.03084,8.69609 L35.03084,10.1231 L34.95921,10.1231 C33.64049,8.1614 31.07442,7.05588 28.68671,7.05588 C25.01681,7.05588 22.80629,9.19529 22.80629,12.79421 L22.80629,19.38781 C22.80629,21.56206 22.55747,21.88199 22.16643,21.88199 C21.98768,21.88199 21.80841,21.81192 21.6307,21.77539 C21.41737,21.70389 21.2381,21.63421 20.98928,21.63421 C19.81265,21.63421 19.42174,22.59556 19.42174,23.66442 C19.42174,25.01928 20.02754,26.12376 21.70181,26.12376 C22.84178,26.12376 23.76855,25.76782 24.9457,25.76782 C26.04862,25.76782 26.58435,26.12376 27.47563,26.12376 C28.4024,26.12376 28.4024,25.44646 28.4024,24.51956 L28.4024,15.64576" id="Path"></path>
                <path d="M55.0927,11.58326 C53.23773,6.48739 50.28114,0 43.93753,0 C41.19232,0 37.91437,1.32028 37.91437,4.49007 C37.91437,6.23844 39.30381,7.55625 41.05023,7.55625 C42.40405,7.55625 43.50957,6.45177 43.50957,5.09587 C43.50957,4.84705 43.43846,4.59823 43.40284,4.34941 C43.68728,4.17001 43.90152,4.06406 44.2585,4.06406 C45.5052,4.06406 47.10836,6.02264 47.10836,7.19966 C47.10836,8.05545 46.11048,10.47878 45.71957,11.36837 L42.11909,19.88636 C41.51381,21.38279 41.3361,21.70376 40.83742,21.70376 C40.55155,21.70376 40.30273,21.63317 40.01673,21.63317 C38.84114,21.63317 38.44815,22.59556 38.44815,23.6639 C38.44815,25.01876 39.05499,26.12376 40.55155,26.12376 C41.62041,26.12376 42.83162,25.76782 44.0453,25.76782 C45.32593,25.76782 46.57419,26.12376 47.92749,26.12376 C49.31888,26.12376 49.99683,25.30372 49.99683,23.98539 C49.99683,22.80889 49.42548,22.5589 48.85582,22.38119 C48.28551,22.23949 47.68023,22.23949 47.68023,21.59729 C47.68023,21.24122 47.96402,20.49229 48.03565,20.2072 L50.35225,13.00754 L50.4218,13.00754 L52.73905,19.88636 C52.91923,20.35046 53.20367,21.16959 53.20367,21.63317 C53.20367,22.02525 52.70499,22.09636 52.20423,22.3457 C51.70555,22.5589 51.17086,22.95202 51.17086,24.0201 C51.17086,25.12536 51.8843,26.12376 53.02596,26.12376 C54.02371,26.12376 55.12728,25.76782 56.2328,25.76782 C57.44388,25.76782 58.62103,26.12376 59.86773,26.12376 C61.36416,26.12376 61.971,25.01876 61.971,23.6639 C61.971,22.59556 61.57749,21.6333 60.40346,21.6333 C60.08041,21.6333 59.76048,21.77643 59.43964,21.77643 C59.0486,21.77643 58.72711,21.52553 58.19294,20.06407 L55.0927,11.58313" id="Path"></path>
                <path d="M62.9564,25.5164 C62.9564,27.29987 62.88529,28.04789 62.31407,28.04789 C61.95865,28.04789 61.60154,27.79855 61.14004,27.79855 C59.96289,27.79855 59.57185,28.75977 59.57185,29.82876 C59.57185,31.21859 60.17713,32.32463 61.67265,32.32463 C62.60098,32.32463 63.56233,31.96765 64.52459,31.96765 C65.59449,31.96765 66.62695,32.32463 67.66032,32.32463 C68.51702,32.32463 68.83695,31.7889 68.83695,30.39959 L68.83695,24.2697 L68.90806,24.2697 C70.01254,25.83737 71.75935,26.65754 73.82622,26.65754 C78.95862,26.65754 80.77563,21.4539 80.77563,17.10709 C80.77563,12.22494 78.49556,7.0564 72.93494,7.0564 C70.58376,7.0564 68.44331,7.91102 67.19674,10.33578 L67.12654,10.26311 L67.23223,9.37352 C67.23223,8.23342 66.26997,7.69769 65.23647,7.69769 C63.34744,7.69769 62.9564,8.58884 62.9564,10.30029 L62.9564,25.51679 L62.9564,25.5164 Z M74.89612,16.7856 C74.89612,17.9972 74.78848,19.31657 74.18164,20.34942 C73.71949,21.13449 72.93494,21.84702 72.00817,21.84702 C70.65331,21.84702 68.83695,20.52817 68.83695,16.71397 C68.83695,13.29289 70.19181,11.86692 71.97268,11.86692 C73.68244,11.86692 74.89612,13.40053 74.89612,16.7856" id="Shape"></path>
                <path d="M87.9723,15.6455 C87.9723,14.89696 87.9723,13.64974 88.39987,12.9363 C88.82796,12.26095 89.61095,11.83286 90.39563,11.83286 C91.429,11.83286 92.3897,12.36755 92.96157,13.25766 C93.71063,14.39776 93.78018,15.61053 93.78018,16.92938 L93.78018,19.38768 C93.78018,21.31272 93.63952,21.88199 93.13772,21.88199 C92.96157,21.88199 92.78386,21.81179 92.60459,21.77539 C92.3897,21.70376 92.21199,21.63421 91.96317,21.63421 C90.78758,21.63421 90.39563,22.59556 90.39563,23.66442 C90.39563,25.01928 91.00143,26.12376 92.56897,26.12376 C93.74456,26.12376 94.52911,25.76782 95.70574,25.76782 C96.66709,25.76782 97.34504,26.12376 98.23463,26.12376 C99.1614,26.12376 99.37629,25.73116 99.37629,24.94765 L99.37629,14.25515 C99.37629,12.11782 99.62511,11.76084 100.01706,11.76084 C100.37404,11.76084 100.72959,12.01109 101.19421,12.01109 C102.3698,12.01109 102.76227,11.04987 102.76227,9.97828 C102.76227,8.62498 102.15647,7.51946 100.65848,7.51946 C99.76824,7.51946 98.94963,7.87748 98.12855,7.87748 C97.34504,7.87748 96.56036,7.51946 95.88254,7.51946 C94.99126,7.51946 94.60022,8.12734 94.60022,8.69609 L94.60022,10.1231 L94.52911,10.1231 C93.21143,8.1614 90.64445,7.05588 88.25622,7.05588 C84.58619,7.05588 82.37723,9.19529 82.37723,12.79421 L82.37723,19.38781 C82.37723,21.56206 82.12685,21.88199 81.73477,21.88199 C81.55706,21.88199 81.37779,21.81192 81.20008,21.77539 C80.98727,21.70389 80.80813,21.63421 80.55931,21.63421 C79.38372,21.63421 78.99008,22.59556 78.99008,23.66442 C78.99008,25.01928 79.59692,26.12376 81.27171,26.12376 C82.41181,26.12376 83.33806,25.76782 84.51508,25.76782 C85.61852,25.76782 86.15438,26.12376 87.04501,26.12376 C87.9723,26.12376 87.9723,25.44646 87.9723,24.51956 L87.9723,15.64576" id="Path"></path>
                <path d="M114.6626,11.58326 C112.80802,6.48739 109.85156,0 103.50899,0 C100.76365,0 97.48479,1.32028 97.48479,4.49007 C97.48479,6.23844 98.87462,7.55625 100.62052,7.55625 C101.97538,7.55625 103.0809,6.45177 103.0809,5.09587 C103.0809,4.84705 103.00979,4.59823 102.97326,4.34941 C103.25861,4.17001 103.47194,4.06406 103.82892,4.06406 C105.07653,4.06406 106.67969,6.02264 106.67969,7.19966 C106.67969,8.05545 105.68194,10.47878 105.28986,11.36837 L101.69042,19.88636 C101.08514,21.38279 100.90587,21.70376 100.40719,21.70376 C100.12184,21.70376 99.87406,21.63317 99.58715,21.63317 C98.41156,21.63317 98.01896,22.59556 98.01896,23.6639 C98.01896,25.01876 98.6258,26.12376 100.12184,26.12376 C101.19174,26.12376 102.40295,25.76782 103.61559,25.76782 C104.89726,25.76782 106.14396,26.12376 107.50038,26.12376 C108.88865,26.12376 109.5666,25.30372 109.5666,23.98539 C109.5666,22.80889 108.9959,22.5589 108.42715,22.38119 C107.85528,22.23949 107.25,22.23949 107.25,21.59729 C107.25,21.24122 107.53535,20.49229 107.60542,20.2072 L109.92267,13.00754 L109.99365,13.00754 L112.30934,19.88636 C112.48965,20.35046 112.77344,21.16959 112.77344,21.63317 C112.77344,22.02525 112.27476,22.09636 111.77569,22.3457 C111.27701,22.5589 110.74115,22.95202 110.74115,24.0201 C110.74115,25.12536 111.45472,26.12376 112.59469,26.12376 C113.59413,26.12376 114.69705,25.76782 115.80413,25.76782 C117.01521,25.76782 118.1908,26.12376 119.4375,26.12376 C120.93458,26.12376 121.54142,25.01876 121.54142,23.6639 C121.54142,22.59556 121.14726,21.6333 119.97323,21.6333 C119.65174,21.6333 119.3309,21.77643 119.00993,21.77643 C118.61993,21.77643 118.29844,21.52553 117.76271,20.06407 L114.6626,11.58313" id="Path"></path>
                <path d="M124.3528,24.5908 C124.3528,26.9074 124.13947,27.47771 123.46152,27.47771 C122.8903,27.47771 122.39357,27.22733 121.85784,27.22733 C120.64728,27.22733 120.00586,28.5467 120.00586,29.61517 C120.00586,31.14813 120.89701,32.32424 124.03287,32.32424 C125.67204,32.32424 127.09749,31.96674 128.87992,31.96674 C131.97951,31.96674 134.01141,32.32424 135.93541,32.32424 C137.79051,32.32424 139.53511,32.11 141.06781,31.29087 C142.99311,30.2575 144.09681,28.43997 144.09681,26.22997 C144.09681,23.5209 142.20791,21.63382 139.60791,21.24083 L139.60791,21.1692 C143.02691,20.34903 145.05881,18.28333 145.05881,14.8967 C145.05881,8.94465 139.64301,7.5192 135.43621,7.5192 C133.47711,7.5192 131.69481,7.87722 128.80881,7.87722 C126.70489,7.87722 125.49537,7.5192 123.89065,7.5192 C120.89701,7.5192 120.00586,8.6957 120.00586,10.2284 C120.00586,11.29687 120.64728,12.61611 121.85784,12.61611 C122.39357,12.61611 122.8903,12.36729 123.46152,12.36729 C124.13947,12.36729 124.3528,13.07917 124.3528,15.25316 L124.3528,24.5908 Z M130.94731,23.69913 C130.94731,22.8449 131.19561,22.8449 132.65681,22.8449 C135.65201,22.8449 137.32511,23.62854 137.32511,25.44594 C137.32511,27.33497 134.97471,27.79764 133.47711,27.79764 C131.12281,27.79764 130.94731,27.33497 130.94731,25.62417 L130.94731,23.69913 L130.94731,23.69913 Z M130.94731,14.32587 C130.94731,12.82931 131.69481,12.26056 134.51061,12.26056 C136.29291,12.26056 138.21431,13.15028 138.21431,15.11146 C138.21431,17.49917 135.54411,18.38993 132.76341,18.38993 C131.01881,18.38993 130.94731,18.3534 130.94731,16.85684 L130.94731,14.32587" id="Shape"></path>
                <path d="M155.246,15.2893 C153.7133,15.32544 153.4988,15.14669 153.2856,14.86121 C153.0724,14.54128 152.7864,13.3653 152.7864,12.97166 C152.7864,12.50951 153.036,12.29475 153.4988,12.29475 C153.7835,12.29475 153.9278,12.26069 154.1046,12.26069 C154.8534,12.26069 155.8518,11.72509 155.8518,9.83593 C155.8518,8.51812 154.8534,7.51933 153.4637,7.51933 C151.931,7.51933 150.826,7.87579 149.2231,7.87579 C147.654,7.87579 146.12,7.51933 144.5899,7.51933 C143.2002,7.51933 142.2031,8.58923 142.2031,10.01377 C142.2031,11.83169 143.0936,12.61637 143.9464,12.61637 C144.3403,12.61637 144.7329,12.54526 145.1593,12.54526 C146.2656,12.54526 146.6556,14.25502 146.9416,15.07467 L151.8244,28.47507 C153.1426,32.0749 153.5339,32.35947 157.4196,32.35947 C159.0953,32.35947 160.5188,32.35947 161.2689,31.9683 C162.1958,31.46858 162.3375,31.04153 162.8003,29.40184 L167.1488,14.82624 C167.6116,13.32916 167.8261,12.54474 168.5372,12.54474 C168.9311,12.54474 169.2873,12.61572 169.6084,12.61572 C170.4638,12.61572 171.353,11.93777 171.353,10.01312 C171.353,8.58871 170.3559,7.51868 168.9311,7.51868 C167.3984,7.51868 166.2934,7.87514 164.6905,7.87514 C163.1214,7.87514 161.59,7.51868 160.0573,7.51868 C158.6663,7.51868 157.6692,8.5176 157.6692,9.83528 C157.6692,11.36733 158.4154,12.26004 159.4164,12.26004 C159.5932,12.26004 159.8077,12.22455 160.0911,12.22455 C160.5916,12.22455 160.9127,12.47337 160.9127,12.97101 C160.9127,13.22243 160.8399,13.40001 160.8048,13.61347 C160.7346,13.97045 160.5916,14.64632 160.4122,14.93219 C160.1977,15.28865 159.8428,15.28865 159.3072,15.28865 L155.246,15.28865 L155.246,15.2893 Z M155.246,20.77673 C155.2109,20.63451 155.1394,20.52791 155.1394,20.3853 C155.1394,20.09878 155.5671,19.92263 156.4927,19.92263 L157.4547,19.92263 C158.7365,19.92263 159.0225,20.06381 159.0225,20.42131 C159.0225,20.67169 158.9159,21.13423 158.8444,21.38253 L157.3832,27.97548 L157.313,27.97548 L155.246,20.77673" id="Shape"></path>
                <path d="M172.107,24.5908 C172.107,26.9074 171.8925,27.47771 171.2139,27.47771 C170.6458,27.47771 170.1466,27.22733 169.6123,27.22733 C168.3994,27.22733 167.7572,28.5467 167.7572,29.61517 C167.7572,31.14813 168.6503,32.32424 171.7859,32.32424 C173.4239,32.32424 174.8487,31.96674 176.6323,31.96674 C179.7315,31.96674 181.7634,32.32424 183.6874,32.32424 C185.5425,32.32424 187.2871,32.11 188.8198,31.29087 C190.7451,30.2575 191.8488,28.43997 191.8488,26.22997 C191.8488,23.5209 189.9599,21.63382 187.3599,21.24083 L187.3599,21.1692 C190.7802,20.34903 192.8108,18.28333 192.8108,14.8967 C192.8108,8.94465 187.3937,7.5192 183.1895,7.5192 C181.2291,7.5192 179.4468,7.87722 176.5608,7.87722 C174.4574,7.87722 173.2471,7.5192 171.6416,7.5192 C168.6503,7.5192 167.7572,8.6957 167.7572,10.2284 C167.7572,11.29687 168.3994,12.61611 169.6123,12.61611 C170.1466,12.61611 170.6458,12.36729 171.2139,12.36729 C171.8925,12.36729 172.107,13.07917 172.107,15.25316 L172.107,24.5908 Z M178.698,23.69913 C178.698,22.8449 178.9476,22.8449 180.4088,22.8449 C183.4027,22.8449 185.0784,23.62854 185.0784,25.44594 C185.0784,27.33497 182.7267,27.79764 181.2291,27.79764 C178.8787,27.79764 178.698,27.33497 178.698,25.62417 L178.698,23.69913 L178.698,23.69913 Z M178.698,14.32587 C178.698,12.82931 179.4468,12.26056 182.2626,12.26056 C184.0449,12.26056 185.9702,13.15028 185.9702,15.11146 C185.9702,17.49917 183.2961,18.38993 180.5167,18.38993 C178.7708,18.38993 178.698,18.3534 178.698,16.85684 L178.698,14.32587" id="Shape"></path>
                <path d="M202.683,21.7399 L204.6434,25.30385 C205.1075,26.12389 205.4624,26.65819 205.4624,27.15726 C205.4624,28.19076 203.8959,27.54882 203.8959,29.68667 C203.8959,31.29139 204.8228,32.32476 205.9265,32.32476 C207.3513,32.32476 208.8125,31.96726 210.275,31.96726 C211.7349,31.96726 212.7684,32.32476 214.1958,32.32476 C215.7987,32.32476 216.6905,31.14917 216.6905,29.61569 C216.6905,28.5467 216.0496,27.22785 214.8354,27.22785 C214.3375,27.22785 213.8747,27.4066 213.3755,27.4066 C212.9829,27.4066 212.6982,27.33549 212.4135,27.01569 C212.0209,26.55146 211.5945,25.8375 211.2357,25.30385 L206.8534,18.31882 C205.9642,16.89233 205.712,16.35764 205.712,15.75236 L205.712,13.65 C205.712,12.86545 206.1774,12.36781 206.9249,12.36781 C207.6386,12.36781 208.3146,12.61663 208.9932,12.61663 C210.2022,12.61663 210.8457,11.29882 210.8457,10.22892 C210.8457,8.69622 209.9539,7.51972 208.351,7.51972 C206.5687,7.51972 205.3584,7.87618 203.3954,7.87618 C201.5793,7.87618 199.7983,7.51972 198.016,7.51972 C195.3432,7.51972 194.4501,8.69622 194.4501,10.22892 C194.4501,11.29882 195.0923,12.61663 196.3039,12.61663 C197.0176,12.61663 197.6949,12.36781 198.406,12.36781 C199.0118,12.36781 199.4057,12.72323 199.4057,13.68549 L199.4057,15.07493 C199.3693,16.28653 199.1197,16.64299 198.2279,18.10549 L194.0952,24.91229 C193.8092,25.37483 193.2034,26.44369 192.8121,26.87139 C192.5274,27.19236 192.2076,27.33549 191.7799,27.33549 C191.2807,27.33549 190.853,27.22785 190.3538,27.22785 C189.1409,27.22785 188.5,28.5467 188.5,29.61569 C188.5,31.14917 189.3918,32.32476 191.1741,32.32476 C192.5976,32.32476 194.0588,31.96726 195.5213,31.96726 C196.8382,31.96726 198.016,32.32476 199.4395,32.32476 C201.0801,32.32476 201.7938,31.04205 201.7938,29.50896 C201.7938,27.58483 200.1194,28.11965 200.1194,27.15726 C200.1194,26.76466 200.3664,26.26663 200.8669,25.30385 L202.683,21.7399 M214.097,7.82132 C214.6508,7.82132 215.124,8.01736 215.5192,8.4084 C215.9105,8.80451 216.1055,9.27771 216.1055,9.82878 C216.1055,10.38219 215.9105,10.85968 215.5192,11.25215 C215.124,11.64306 214.6508,11.83858 214.097,11.83858 C213.5471,11.83858 213.07,11.64306 212.6761,11.25215 C212.2848,10.85955 212.0885,10.38219 212.0885,9.82865 C212.0885,9.27771 212.2848,8.80451 212.6761,8.4084 C213.07,8.01736 213.5471,7.82132 214.097,7.82132 M214.097,12.13927 C214.7379,12.13927 215.2813,11.91333 215.7337,11.46639 C216.1822,11.01347 216.4071,10.46851 216.4071,9.82865 C216.4071,9.19646 216.1822,8.65813 215.7337,8.20261 C215.2813,7.74813 214.7379,7.51959 214.097,7.51959 C213.4652,7.51959 212.9218,7.74813 212.4655,8.20261 C212.0157,8.65813 211.7882,9.19646 211.7882,9.82865 C211.7882,10.46851 212.0131,11.01347 212.4616,11.46639 C212.9127,11.91333 213.4574,12.13927 214.097,12.13927" id="Shape"></path>
                <path d="M214.227,9.86583 C214.4844,9.86583 214.6378,10.00402 214.6378,10.20968 L214.6378,10.21475 C214.6378,10.4468 214.4766,10.5651 214.2166,10.5651 L213.6836,10.5651 L213.6836,9.8657 L214.227,9.8657 L214.227,9.86583 Z M213.1493,11.04857 L214.2608,11.04857 C214.5702,11.04857 214.8107,10.96017 214.9693,10.80118 C215.1097,10.66416 215.1812,10.47111 215.1812,10.24114 L215.1812,10.23594 C215.1812,9.84399 214.968,9.59764 214.6573,9.4809 L215.254,8.61107 L214.63,8.61107 L214.1061,9.39211 L213.6836,9.39211 L213.6836,8.61107 L213.1493,8.61107 L213.1493,11.04857" id="Shape"></path>
            </g>
        </g>
    </g>
</svg>